<?xml version="1.0" encoding="UTF-8"?>
<svg id="Capa_1" data-name="Capa 1" xmlns="http://www.w3.org/2000/svg" viewBox="0 0 461.82173 207.60831">
  <defs>
    <style>
      .cls-1 {
        fill: #941914;
      }

      .cls-1, .cls-2, .cls-3, .cls-4, .cls-5, .cls-6, .cls-7 {
        stroke-width: 0px;
      }

      .cls-2 {
        fill: #e00914;
      }

      .cls-3 {
        fill: #e6e7e8;
      }

      .cls-5 {
        fill: #d9f1fc;
      }

      .cls-6 {
        fill: #fff;
      }

      .cls-7 {
        fill: #545b78;
      }
    </style>
  </defs>
  <path class="cls-2" d="M327.06,115.1597H32.534c-5.04,0-9.56-3.10001-11.377-7.80099l-12.809-33.15401c-2.967-7.67999,2.371-16.033,10.587-16.56599l145.776-9.453s23.27701-30.942,34.67999-36.097c34.847-15.754,103.026-4.51199,152.659,9.776s99.26599,32.33701,104.53,33.089-18.048,60.20599-18.048,60.20599h-111.47198Z"/>
  <path class="cls-7" d="M438.53101,119.58969H32.534c-6.819,0-13.052-4.27301-15.51-10.634l-12.809-33.15298c-1.928-4.99001-1.381-10.438,1.5-14.946,2.881-4.509,7.596-7.29201,12.935-7.638l143.759-9.32201c5.37-6.99899,24.245-30.911,35.158-35.84399C214.18001.54271,238.75-1.73129,270.59601,1.3017c25.08099,2.38699,54.444,8.17799,82.67999,16.30701,29.867,8.59799,59.99399,18.64,79.92902,25.286,11.418,3.806,22.202,7.39999,24.004,7.675,1.54401.22,2.89301,1.138,3.69699,2.519,1.276,2.19,2.86499,4.91701-7.81601,35.504-4.974,14.244-10.38,28.04799-10.43399,28.18599-.66501,1.69501-2.302,2.811-4.125,2.811ZM245.12801,8.84469c-17.24699,0-32.539,2.14-43.912,7.282-8.5,3.842-26.67799,26.368-32.964,34.72301-.77699,1.033-1.965,1.674-3.254,1.758L19.22301,62.0607c-2.493.162-4.695,1.46201-6.04,3.567-1.346,2.106-1.601,4.64999-.7,6.981l12.809,33.15399c1.148,2.97,4.059,4.966,7.244,4.966h402.969c8.08899-20.88,16.17599-44.489,17.30099-52.15201-3.86401-1.10899-10.81699-3.41499-22.401-7.27699-19.866-6.62199-49.888-16.63-79.57901-25.177-33.21799-9.563-72.96799-17.278-105.69798-17.278Z"/>
  <path class="cls-1" d="M435.44601,110.6467c7.85199-20.274,15.70401-43.12,17.16699-51.39999l-96.15298-5.099c-12.29401-.65199-24.31601,3.77901-33.246,12.254h0c-8.33301,7.908-19.383,12.317-30.871,12.317H14.927l10.437,27.01201c1.145,2.96301,3.994,4.91599,7.17,4.91599h402.91201Z"/>
  <path class="cls-3" d="M438.629,153.08868H19.363c-6.514,0-11.844-5.32999-11.844-11.84399h0c0-6.51401,5.33-11.84399,11.844-11.84399h419.266c6.51401,0,11.84399,5.32999,11.84399,11.84399h0c0,6.51401-5.32999,11.84399-11.84399,11.84399Z"/>
  <circle class="cls-6" cx="94.45" cy="107.59271" r="31.20001" transform="translate(-17.31215 197.07019) rotate(-87.40278)"/>
  <g>
    <path class="cls-7" d="M94.453,143.2247c-19.65,0-35.636-15.987-35.636-35.63599,0-19.64999,15.986-35.63699,35.636-35.63699s35.636,15.987,35.636,35.63699c0,19.64899-15.98601,35.63599-35.636,35.63599ZM94.453,80.81369c-14.763,0-26.774,12.01199-26.774,26.77499s12.011,26.77399,26.774,26.77399,26.775-12.01099,26.775-26.77399c0-14.76299-12.011-26.77499-26.775-26.77499Z"/>
    <circle class="cls-7" cx="94.45" cy="107.59271" r="11.125"/>
  </g>
  <path class="cls-5" d="M316.55801,31.4957c-26.258-5.78101-51.28-9.007-71.422-9.007-16.312,0-29.562,2.089-38.10201,5.944-3.291,1.81599-11.351,10.203-19.56,20.084h108.713l20.371-17.021Z"/>
  <path class="cls-7" d="M296.18799,52.94769h-108.71298c-1.718,0-3.28101-.993-4.011-2.549-.73-1.55499-.495-3.392.603-4.713,2.46899-2.972,15.08-17.95999,20.826-21.131.104-.058.21001-.11099.31799-.16,9.183-4.145,22.989-6.33701,39.925-6.33701,20.27599,0,45.30299,3.14999,72.37498,9.11101,1.64999.36301,2.95001,1.634,3.35101,3.27499.401,1.64101-.16599,3.368-1.46301,4.452l-20.371,17.021c-.79599.66602-1.80197,1.03101-2.84,1.03101ZM197.131,44.08569h97.44899l12.129-10.13499c-23.013-4.61101-44.14999-7.032-61.573-7.032-15.342,0-28.145,1.94-36.091,5.467-1.76099,1.06-6.15498,5.25301-11.91399,11.7Z"/>
  <path class="cls-6" d="M372.31,90.6747h-20.76501c-13.466,0-24.37601,10.875-24.46799,24.31801,3.98199,16.27802,20.61099,27.599,38.961,22.61301,9.022-2.45099,16.556-9.302,20.052-17.97299,1.72699-4.28201,2.461-8.44199,2.41501-12.39899-.104-8.78999-7.25601-16.507-16.047-16.56-.05002.00096-.099.00096-.14801.00096Z"/>
  <path class="cls-7" d="M357.30899,143.21869c-6.32999,0-12.49799-1.64999-17.983-4.88501-8.24301-4.86099-14.276-12.98499-16.55301-22.28799-.08701-.35501-.129-.71799-.12701-1.08401.10901-15.836,13.073-28.718,28.89999-28.718l20.99899.002c10.892.065,20.25699,9.65401,20.38998,20.93799.056,4.71899-.86401,9.466-2.73499,14.10699-4.06699,10.086-12.66501,17.784-23,20.59201-3.29196.89404-6.61395,1.33603-9.89096,1.33603ZM331.51801,114.4787c1.80899,6.772,6.26999,12.66299,12.30801,16.22202,6.25101,3.68701,13.72699,4.621,21.04901,2.63,7.56-2.05499,14.11401-7.93799,17.10501-15.354,1.431-3.54901,2.13501-7.14499,2.09299-10.689-.078-6.565-5.41-12.14301-11.64301-12.181l-.121-4.43201v4.431h-20.76501c-10.79001-.00102-19.66202,8.64099-20.026,19.37299Z"/>
  <path class="cls-6" d="M30.071,115.1597h-12.364c-7.302,0-13.277-5.974-13.277-13.27701h0c0-7.302,5.974-13.27701,13.277-13.27701h12.364c7.302,0,13.277,5.974,13.277,13.27701h0c0,7.302-5.975,13.27701-13.277,13.27701Z"/>
  <path class="cls-7" d="M30.071,119.58969h-12.364c-9.764,0-17.707-7.94299-17.707-17.707s7.943-17.70801,17.707-17.70801h12.364c9.764,0,17.707,7.94299,17.707,17.70801,0,9.76401-7.943,17.707-17.707,17.707ZM17.707,93.0367c-4.877,0-8.846,3.968-8.846,8.84599,0,4.87701,3.968,8.845,8.846,8.845h12.364c4.877,0,8.846-3.96799,8.846-8.845,0-4.87801-3.968-8.84599-8.846-8.84599h-12.364Z"/>
  <path class="cls-6" d="M444.077,115.1597h-12.36401c-7.302,0-13.27701-5.974-13.27701-13.27701h0c0-7.302,5.974-13.27701,13.27701-13.27701h12.36401c7.302,0,13.27701,5.974,13.27701,13.27701h0c0,7.302-5.97501,13.27701-13.27701,13.27701Z"/>
  <g>
    <path class="cls-7" d="M444.077,119.58969h-12.36401c-9.76401,0-17.707-7.94299-17.707-17.707s7.94299-17.70801,17.707-17.70801h12.36401c9.76401,0,17.707,7.94299,17.707,17.70801.00101,9.76401-7.94299,17.707-17.707,17.707ZM431.71301,93.0367c-4.87701,0-8.84601,3.968-8.84601,8.84599,0,4.87701,3.96799,8.845,8.84601,8.845h12.36401c4.87701,0,8.84601-3.96799,8.84601-8.845,0-4.87801-3.96799-8.84599-8.84601-8.84599h-12.36401Z"/>
    <circle class="cls-7" cx="357.29999" cy="107.59271" r="11.125"/>
    <rect class="cls-7" x="372.31" y="86.24269" width="28.25" height="8.862"/>
    <rect class="cls-7" x="154.27" y="74.2827" width="92.5" height="8.862"/>
  </g>
  <g>
    <path class="cls-4" d="M93.09375,194.62881h-15.90039v-9.82324h3.15625v-21.3877h-3.24463v-9.82324h24.75l6.04785,15.8418,6.19482-15.8418h24.60254v9.82324h-3.21533v21.3877h3.3042v9.82324h-21.41699v-9.82324h3.27441v-22.92188l-12.38965,32.74512h-6.13623l-12.27197-32.4502v22.62695h3.24512v9.82324Z"/>
    <path class="cls-4" d="M155.2793,174.0087l-11.62256-1.18066c1.27783-2.81152,3.34277-4.78809,6.19482-5.92871,2.81201-1.14062,6.96191-1.71094,12.44873-1.71094,2.02539,0,3.83984.06348,5.44287.19141,1.60254.12793,3.0332.32031,4.29199.5752,2.61572.49219,4.55273,1.24902,5.81152,2.27148,1.2583,1.04297,2.13379,2.16406,2.62549,3.36328.51172,1.23828.76758,3.16602.76758,5.78125v8.26074h3.65723v8.99707h-18.49609v-1.94727c-2.55664,1.65234-5.97852,2.47852-10.26611,2.47852-4.03174,0-7.06982-.88477-9.11523-2.65527-2.06494-1.76953-3.09766-3.86426-3.09766-6.2832,0-2.6748,1.26855-4.86816,3.80566-6.5791,2.51709-1.71094,5.80127-2.56641,9.85303-2.56641,3.69727,0,6.63721.48242,8.82031,1.44629v-.85547c0-1.77051-.12793-3.00977-.3833-3.71777-.27588-.74707-.88525-1.38574-1.8291-1.91699-.98389-.51172-2.12402-.76758-3.42188-.76758-2.37988,0-4.20898.91504-5.4873,2.74414ZM166.40088,187.31241v-5.2207c-1.31787-.70801-2.71387-1.0625-4.18896-1.0625-1.29785,0-2.33057.35449-3.09766,1.0625-.7666.72754-1.15039,1.65137-1.15039,2.77246,0,1.16113.39307,2.10449,1.18018,2.83203.80615.74805,1.73047,1.12109,2.77295,1.12109,1.84814,0,3.34326-.50098,4.48389-1.50488Z"/>
    <path class="cls-4" d="M211.65381,194.62881h-22.41992v-8.99707h3.54004v-10.62012h-3.59961v-8.99805h18.4668v3.92383c1.41602-1.19922,3.27441-2.24219,5.57617-3.12695,2.28125-.88477,4.46387-1.32715,6.54883-1.32715,4.85742,0,8.1123,1.86816,9.76465,5.60449,4.38525-3.73633,8.85986-5.60449,13.42236-5.60449,2.49707,0,4.55273.53027,6.16602,1.59277,1.65137,1.08203,2.81152,2.51758,3.48047,4.30664.68848,1.84863,1.03223,4.44531,1.03223,7.78809v6.46094h3.77637v8.99707h-18.61426v-12.30176c0-3.20508-.24609-5.20117-.7373-5.98828-.49219-.78613-1.37695-1.17969-2.65527-1.17969-1.61328,0-3.23535.60938-4.86768,1.8291v8.64355h4.0415v8.99707h-18.88037v-12.24219c0-3.14648-.2168-5.14258-.64844-5.98828-.43359-.82617-1.30859-1.23926-2.62598-1.23926-1.51465,0-3.10742.60938-4.7793,1.8291v8.64355h4.0127v8.99707Z"/>
    <path class="cls-4" d="M264.0459,205.21963l4.07031-7.25781c2.30176.96387,5.38867,1.44629,9.26367,1.44629,2.55566,0,4.55273-.36426,5.98828-1.0918,1.45508-.70801,2.38965-1.54395,2.80273-2.50781.39258-.96387.58984-2.33008.58984-4.10059-2.96973,1.49512-6.28418,2.24219-9.94141,2.24219-4.26855,0-7.86719-1.21875-10.79688-3.6582-2.96973-2.41895-4.45508-5.77148-4.45508-10.05859,0-4.52344,1.54395-8.11328,4.63184-10.76758,3.06836-2.65527,6.78516-3.98242,11.15039-3.98242,3.58008,0,6.71582.78613,9.41113,2.35938v-1.8291h18.34863v8.99805h-3.56934v15.69336c0,3.50098-.31543,6.19531-.94434,8.08301-.64844,1.88867-1.80957,3.50098-3.48047,4.83789-1.67188,1.39648-3.7666,2.39941-6.28418,3.00977-2.49707.64844-5.81152.97266-9.94141.97266-1.84863,0-3.49512-.05859-4.94043-.17676-1.44629-.11816-3.10254-.31445-4.9707-.58984-3.18652-.51172-5.49707-1.05273-6.93262-1.62207ZM276.58301,180.49795c0,1.75098.44238,3.20605,1.32715,4.36621.88574,1.18066,2.14355,1.77051,3.77637,1.77051,1.73047,0,3.01855-.59961,3.86426-1.7998.8457-1.16016,1.26855-2.625,1.26855-4.39551,0-1.92676-.45215-3.49023-1.35645-4.69043-.9248-1.21875-2.16406-1.8291-3.71777-1.8291-1.67188,0-2.94922.63965-3.83496,1.91797-.88477,1.25879-1.32715,2.8125-1.32715,4.66016Z"/>
    <path class="cls-4" d="M311.6582,175.01163h-3.45117v-8.99805h18.29004v13.62891c0,2.30176.21582,3.8457.64844,4.63184.41309.80664,1.29785,1.20996,2.65527,1.20996,1.65234,0,3.18555-.44336,4.60156-1.32812v-9.14453h-3.92285v-8.99805h18.76172v19.61816h3.45117v8.99707h-18.29004v-3.62891c-3.91309,2.77344-7.91602,4.16016-12.00586,4.16016-2.93066,0-5.44824-.93457-7.55176-2.80273-2.12402-1.86816-3.18652-5.38867-3.18652-10.56055v-6.78516Z"/>
    <path class="cls-4" d="M374.64062,194.62881h-18.49707v-8.99707h3.6582v-23.04004h-3.7168v-8.99707h18.55566v28.58496l9.32129-9.11523h-5.2207v-7.05078h18.28906v7.75879h-3.33301l-5.36914,5.25098,6.46094,6.6084h2.33008v8.99707h-10.64941l-11.8291-12.44922v12.44922Z"/>
  </g>
</svg>