<?xml version="1.0" encoding="utf-8"?>
<!-- Generator: Adobe Illustrator 28.1.0, SVG Export Plug-In . SVG Version: 6.00 Build 0)  -->
<svg version="1.1" id="Слой_1" xmlns="http://www.w3.org/2000/svg" xmlns:xlink="http://www.w3.org/1999/xlink" x="0px" y="0px"
	 viewBox="0 0 30 30" style="enable-background:new 0 0 30 30;" xml:space="preserve">
<style type="text/css">
	.st0{fill:#FFFFFF;}
</style>
<path d="M8,0h14c4.4,0,8,3.6,8,8v14c0,4.4-3.6,8-8,8H8c-4.4,0-8-3.6-8-8V8C0,3.6,3.6,0,8,0z"/>
<path class="st0" d="M15.8,21C9.7,21,6.2,16.6,6,9.2C6,9.1,6.1,9,6.2,9l2.7,0C9,9,9.1,9.1,9.1,9.2c0.1,5.1,2.2,7.4,3.9,8.1
	c0.1,0,0.2-0.1,0.2-0.2c0-1.3,0-6.8,0-7.9c0-0.1,0.1-0.2,0.2-0.2H16c0.1,0,0.2,0.1,0.2,0.2l0,4.3c0,0.1,0.1,0.2,0.2,0.2
	c1.6-0.3,3.1-2.1,3.9-4.1C20.4,9.2,20.7,9,21,9l1.9,0c0.3,0,0.4,0.1,0.3,0.2c-0.5,2.7-2.3,4.6-3.7,5.6c-0.1,0.1-0.1,0.2,0,0.3
	c1.4,0.8,3.4,2.6,4.3,5.6c0,0.1-0.1,0.2-0.2,0.2l-2.4,0c-0.4,0-0.7-0.2-0.8-0.6c-0.8-1.9-2.3-3.4-4.2-3.7c-0.1,0-0.2,0.1-0.2,0.2
	l0,4.1H15.8z"/>
</svg>
